<?xml version="1.0" encoding="UTF-8"?>
<svg xmlns="http://www.w3.org/2000/svg" xmlns:xlink="http://www.w3.org/1999/xlink" viewBox="0 0 64 64" width="64px" height="64px">
<g id="surface37797372">
<path style=" stroke:none;fill-rule:nonzero;fill:rgb(100%,100%,100%);fill-opacity:1;" d="M 58 32 C 58 46.359375 46.359375 58 32 58 C 17.640625 58 6 46.359375 6 32 C 6 17.640625 17.640625 6 32 6 C 46.359375 6 58 17.640625 58 32 Z M 45.582031 23.785156 C 43.734375 20.824219 40.902344 18.511719 37.640625 17.308594 L 36.234375 21.054688 C 38.652344 21.984375 40.738281 23.738281 42.070312 25.941406 C 43.417969 28.140625 43.945312 30.785156 43.640625 33.335938 C 43.335938 35.878906 42.140625 38.285156 40.320312 40.082031 C 38.507812 41.882812 36.101562 43.054688 33.578125 43.34375 C 31.046875 43.652344 28.441406 43.101562 26.28125 41.792969 C 24.117188 40.496094 22.398438 38.464844 21.511719 36.125 C 20.609375 33.796875 20.523438 31.144531 21.269531 28.773438 C 21.746094 27.214844 22.589844 25.773438 23.683594 24.5625 L 26.828125 28.054688 L 29.578125 16.007812 L 17.296875 17.46875 L 20.355469 20.863281 C 18.621094 22.710938 17.3125 24.945312 16.601562 27.375 C 15.585938 30.808594 15.769531 34.550781 17.105469 37.859375 C 18.421875 41.175781 20.878906 43.984375 23.941406 45.761719 C 27 47.554688 30.660156 48.261719 34.140625 47.785156 C 37.644531 47.335938 40.957031 45.660156 43.410156 43.152344 C 45.878906 40.652344 47.480469 37.3125 47.851562 33.820312 C 48.226562 30.351562 47.445312 26.742188 45.582031 23.785156 Z M 45.582031 23.785156 "/>
</g>
</svg>
